<?xml version="1.0" encoding="utf-8"?>
<!-- Generator: Adobe Illustrator 16.0.4, SVG Export Plug-In . SVG Version: 6.00 Build 0)  -->
<!DOCTYPE svg PUBLIC "-//W3C//DTD SVG 1.1//EN" "http://www.w3.org/Graphics/SVG/1.1/DTD/svg11.dtd">
<svg version="1.1" id="logo-svg" xmlns="http://www.w3.org/2000/svg" xmlns:xlink="http://www.w3.org/1999/xlink" x="0px" y="0px" width="1024px" height="303.5px" viewBox="0 0 1024 303.5" enable-background="new 0 0 1024 303.5" xml:space="preserve">
<path fill="#FFFFFF" fill-opacity="0" stroke="#FFFFFF" stroke-opacity="1" d="M690.22,19.54C642.89,21.43,579.4,72.45,576.9,74.09C557.5,86.82,560.189,118.88,540,134c-10.21,7.65-23.99,13.65-40.64,8.56c-10.7-3.27-10.36,10.77,0.369,17.11c-33.689,1.73-53.85-44.92-2.3-65.49c-20.67-4.33-115.9-72.69-164.9-74.64c-49-1.96-241.47,170.55-277.08,263.51c62.95-90.58,246.63-181.74,273.16-189.04c36.39-10.01,73.56-6.27,86.23,0c16.83,8.32,33.32,23.52,33.32,23.52s-29.34,15.57-103.87-1.24c28.02,29.54,88.17,62.74,166.97,62.83v0.01c0.04,0,0.08,0,0.12,0s0.08,0,0.12,0l0,0c78.811-0.09,138.95-33.29,166.97-62.83c-74.529,16.8-103.859,1.24-103.859,1.24S592.67,101,607.9,94.01c13.239-6.07,51.77-10.01,86.229,0c26.41,7.67,210.2,98.46,273.15,189.04C931.68,190.09,739.21,17.58,690.22,19.54z"/>
</svg>